@startuml
class Juego
Class Brazo
Class Usuario1
class Usuario2
class Mapa
class RobotAzul
class RobotRosa
class RobotNaranja
class RobotVerde
class Bombas
class BombaControlRemoto
class Explosion
class MuroSolido
class MuroDestruible
class Suelo
class Velocidad
class MasBombas
class MasFuego
class Escudo
class Guante
class Patada
class VidaExtra
class PistolaLaser
class ProyectilLaser
class Vehiculo
Class Vida

class RobotAzul{
    - Brazo brazoDerecho
    - Brazo brazoIzquierdo
}
class RobotRosa{
    - Brazo brazoDerecho
    - Brazo brazoIzquierdo
}
class RobotNaranja{
    - Brazo brazoDerecho
    - Brazo brazoIzquierdo
}
class RobotVerde{
    - Brazo brazoDerecho
    - Brazo brazoIzquierdo
}
class RobotAzul{
    - Bombas bomba[]    
}
class RobotRosa{
    - Bombas bomba[]    
}
class RobotNaranja{
    - Bombas bomba[]    
}
class RobotVerde{
    - Bombas bomba[]    
}

Juego-->Mapa
Mapa-->Personaje
Juego-->Usuario1
Juego-->Usuario2
Mapa-->MuroDestruible
Mapa-->MuroSolido
Mapa-->Suelo
Personaje--> Brazo

RobotAzul--->Personaje
RobotRosa--->Personaje
RobotNaranja--->Personaje
RobotVerde--->Personaje

RobotAzul "1" *--- "*" Bombas
RobotRosa "1" *--- "*" Bombas
RobotNaranja "1" *--- "*" Bombas
RobotVerde "1" *--- "*" Bombas

Usuario1 *-- "1" Personaje
Usuario2 *-- "1" Personaje

Item *-- "1" BombaControlRemoto
Item *-- "1" Explosion
Item *-- "1" Velocidad
Item *-- "1" MasBombas
Item *-- "1" MasFuego
Item *-- "1" Escudo
Item *-- "1" Guante
Item *-- "1" Patada
Item *-- "1" VidaExtra
Item *-- "1" PistolaLaser
Item *-- "1" ProyectilLaser
Item *-- "1" Vehiculo

Personaje *-- "1" Vida
Juego *-- "1" Mapa
MuroDestruible *-- "1" Item

class Personaje
{
    -Vida vida[1]
}
class Item{
-BombaControlRemoto bombacontrolremoto
-Explosion explosion
-Velocidad velocidad
-MasBombas masbombas
-MasFuego masfuego
-Escudo escudo
-Guante guante
-Patada patada
-VidaExtra vidaextra
-PistolaLaser pistolalaser
-ProyectilLaser proyectillaser
-Vehiculo vehiculo
}

class Personaje{
    +Tocar(Item)
}
class MuroDestruible{
    -Item contenido
    +item : Explocion()
}
class Mapa{
    -Personaje peronaje[4] 
    -Usuario1 usuario1
    -Usuario2 usuario2
    -Suelo suelo
    -MuroDestruible murodestruible
    -MuroSolido murosolido
}
@enduml

